<svg width="128" height="128" viewBox="0 0 128 128" fill="none" xmlns="http://www.w3.org/2000/svg">
<rect width="128" height="128" fill="white" fill-opacity="0.06"/>
<circle cx="5.5" cy="5.5" r="0.5" fill="#D9D9D9" fill-opacity="0.5"/>
<circle cx="5.5" cy="21.5" r="0.5" fill="#D9D9D9" fill-opacity="0.5"/>
<circle cx="5.5" cy="37.5" r="0.5" fill="#D9D9D9" fill-opacity="0.5"/>
<circle cx="5.5" cy="53.5" r="0.5" fill="#D9D9D9" fill-opacity="0.5"/>
<circle cx="5.5" cy="69.5" r="0.5" fill="#D9D9D9" fill-opacity="0.5"/>
<circle cx="5.5" cy="85.5" r="0.5" fill="#D9D9D9" fill-opacity="0.5"/>
<circle cx="5.5" cy="101.5" r="0.5" fill="#D9D9D9" fill-opacity="0.5"/>
<circle cx="5.5" cy="117.5" r="0.5" fill="#D9D9D9" fill-opacity="0.5"/>
<circle cx="21.5" cy="5.5" r="0.5" fill="#D9D9D9" fill-opacity="0.5"/>
<circle cx="21.5" cy="21.5" r="0.5" fill="#D9D9D9" fill-opacity="0.5"/>
<circle cx="21.5" cy="37.5" r="0.5" fill="#D9D9D9" fill-opacity="0.5"/>
<circle cx="21.5" cy="53.5" r="0.5" fill="#D9D9D9" fill-opacity="0.5"/>
<circle cx="21.5" cy="69.5" r="0.5" fill="#D9D9D9" fill-opacity="0.5"/>
<circle cx="21.5" cy="85.5" r="0.5" fill="#D9D9D9" fill-opacity="0.5"/>
<circle cx="21.5" cy="101.5" r="0.5" fill="#D9D9D9" fill-opacity="0.5"/>
<circle cx="21.5" cy="117.5" r="0.5" fill="#D9D9D9" fill-opacity="0.5"/>
<circle cx="37.5" cy="5.5" r="0.5" fill="#D9D9D9" fill-opacity="0.5"/>
<circle cx="37.5" cy="21.5" r="0.5" fill="#D9D9D9" fill-opacity="0.5"/>
<circle cx="37.5" cy="37.5" r="0.5" fill="#D9D9D9" fill-opacity="0.5"/>
<circle cx="37.5" cy="53.5" r="0.5" fill="#D9D9D9" fill-opacity="0.5"/>
<circle cx="37.5" cy="69.5" r="0.5" fill="#D9D9D9" fill-opacity="0.5"/>
<circle cx="37.5" cy="85.5" r="0.5" fill="#D9D9D9" fill-opacity="0.5"/>
<circle cx="37.5" cy="101.5" r="0.5" fill="#D9D9D9" fill-opacity="0.5"/>
<circle cx="37.5" cy="117.5" r="0.5" fill="#D9D9D9" fill-opacity="0.5"/>
<circle cx="53.5" cy="5.5" r="0.5" fill="#D9D9D9" fill-opacity="0.5"/>
<circle cx="53.5" cy="21.5" r="0.5" fill="#D9D9D9" fill-opacity="0.5"/>
<circle cx="53.5" cy="37.5" r="0.5" fill="#D9D9D9" fill-opacity="0.5"/>
<circle cx="53.5" cy="53.5" r="0.5" fill="#D9D9D9" fill-opacity="0.5"/>
<circle cx="53.5" cy="69.5" r="0.5" fill="#D9D9D9" fill-opacity="0.5"/>
<circle cx="53.5" cy="85.5" r="0.5" fill="#D9D9D9" fill-opacity="0.5"/>
<circle cx="53.5" cy="101.5" r="0.5" fill="#D9D9D9" fill-opacity="0.5"/>
<circle cx="53.5" cy="117.5" r="0.5" fill="#D9D9D9" fill-opacity="0.5"/>
<circle cx="69.5" cy="5.5" r="0.5" fill="#D9D9D9" fill-opacity="0.5"/>
<circle cx="69.5" cy="21.5" r="0.5" fill="#D9D9D9" fill-opacity="0.5"/>
<circle cx="69.5" cy="37.5" r="0.5" fill="#D9D9D9" fill-opacity="0.5"/>
<circle cx="69.5" cy="53.5" r="0.5" fill="#D9D9D9" fill-opacity="0.5"/>
<circle cx="69.5" cy="69.5" r="0.5" fill="#D9D9D9" fill-opacity="0.5"/>
<circle cx="69.5" cy="85.5" r="0.5" fill="#D9D9D9" fill-opacity="0.5"/>
<circle cx="69.5" cy="101.5" r="0.5" fill="#D9D9D9" fill-opacity="0.5"/>
<circle cx="69.5" cy="117.5" r="0.5" fill="#D9D9D9" fill-opacity="0.5"/>
<circle cx="85.5" cy="5.5" r="0.5" fill="#D9D9D9" fill-opacity="0.5"/>
<circle cx="85.5" cy="21.5" r="0.5" fill="#D9D9D9" fill-opacity="0.5"/>
<circle cx="85.5" cy="37.5" r="0.5" fill="#D9D9D9" fill-opacity="0.5"/>
<circle cx="85.5" cy="53.5" r="0.5" fill="#D9D9D9" fill-opacity="0.5"/>
<circle cx="85.5" cy="69.5" r="0.5" fill="#D9D9D9" fill-opacity="0.5"/>
<circle cx="85.5" cy="85.5" r="0.5" fill="#D9D9D9" fill-opacity="0.5"/>
<circle cx="85.5" cy="101.5" r="0.5" fill="#D9D9D9" fill-opacity="0.5"/>
<circle cx="85.5" cy="117.5" r="0.5" fill="#D9D9D9" fill-opacity="0.5"/>
<circle cx="101.5" cy="5.5" r="0.5" fill="#D9D9D9" fill-opacity="0.5"/>
<circle cx="101.5" cy="21.5" r="0.5" fill="#D9D9D9" fill-opacity="0.5"/>
<circle cx="101.5" cy="37.5" r="0.5" fill="#D9D9D9" fill-opacity="0.5"/>
<circle cx="101.5" cy="53.5" r="0.5" fill="#D9D9D9" fill-opacity="0.5"/>
<circle cx="101.5" cy="69.5" r="0.5" fill="#D9D9D9" fill-opacity="0.5"/>
<circle cx="101.5" cy="85.5" r="0.5" fill="#D9D9D9" fill-opacity="0.5"/>
<circle cx="101.5" cy="101.5" r="0.5" fill="#D9D9D9" fill-opacity="0.5"/>
<circle cx="101.5" cy="117.5" r="0.5" fill="#D9D9D9" fill-opacity="0.5"/>
<circle cx="117.5" cy="5.5" r="0.5" fill="#D9D9D9" fill-opacity="0.5"/>
<circle cx="117.5" cy="21.5" r="0.5" fill="#D9D9D9" fill-opacity="0.5"/>
<circle cx="117.5" cy="37.5" r="0.5" fill="#D9D9D9" fill-opacity="0.5"/>
<circle cx="117.5" cy="53.5" r="0.5" fill="#D9D9D9" fill-opacity="0.5"/>
<circle cx="117.5" cy="69.5" r="0.5" fill="#D9D9D9" fill-opacity="0.5"/>
<circle cx="117.5" cy="85.5" r="0.5" fill="#D9D9D9" fill-opacity="0.5"/>
<circle cx="117.5" cy="101.5" r="0.5" fill="#D9D9D9" fill-opacity="0.5"/>
<circle cx="117.5" cy="117.5" r="0.5" fill="#D9D9D9" fill-opacity="0.5"/>
</svg>
